<svg width="528" height="213" viewBox="0 0 528 213" fill="none" xmlns="http://www.w3.org/2000/svg">
<path d="M46.4796 89C39.8572 89 33.6844 87.9346 27.9613 85.8039C22.32 83.5912 17.4145 80.477 13.2448 76.4613C9.07517 72.4457 5.80484 67.7334 3.43385 62.3246C1.14462 56.9157 0 50.9742 0 44.5C0 38.0258 1.14462 32.0843 3.43385 26.6754C5.80484 21.2666 9.07517 16.5543 13.2448 12.5387C17.4963 8.52302 22.4426 5.44981 28.084 3.31905C33.7253 1.10635 39.898 0 46.6022 0C54.0422 0 60.7464 1.31123 66.7147 3.9337C72.7649 6.47421 77.8339 10.244 81.9218 15.2431L69.1675 27.0442C66.2242 23.6842 62.9539 21.1846 59.3565 19.5456C55.7591 17.8246 51.8347 16.9641 47.5833 16.9641C43.5772 16.9641 39.898 17.6197 36.5459 18.9309C33.1939 20.2422 30.2914 22.1271 27.8387 24.5856C25.3859 27.0442 23.4646 29.9535 22.0747 33.3135C20.7666 36.6736 20.1125 40.4024 20.1125 44.5C20.1125 48.5976 20.7666 52.3264 22.0747 55.6865C23.4646 59.0465 25.3859 61.9558 27.8387 64.4144C30.2914 66.8729 33.1939 68.7578 36.5459 70.0691C39.898 71.3803 43.5772 72.0359 47.5833 72.0359C51.8347 72.0359 55.7591 71.2164 59.3565 69.5773C62.9539 67.8563 66.2242 65.2749 69.1675 61.8329L81.9218 73.634C77.8339 78.633 72.7649 82.4438 66.7147 85.0663C60.7464 87.6888 54.0013 89 46.4796 89Z" fill="white"/>
<path d="M132.999 89C120.817 89 111.292 85.599 104.425 78.797C97.5571 71.9949 94.1233 62.2836 94.1233 49.663V1.47513H113.991V48.9254C113.991 57.1206 115.667 63.0212 119.019 66.6271C122.371 70.233 127.072 72.0359 133.122 72.0359C139.172 72.0359 143.873 70.233 147.225 66.6271C150.577 63.0212 152.253 57.1206 152.253 48.9254V1.47513H171.875V49.663C171.875 62.2836 168.442 71.9949 161.574 78.797C154.706 85.599 145.181 89 132.999 89Z" fill="white"/>
<path d="M191.508 87.5249V1.47513H228.667C236.352 1.47513 242.975 2.74539 248.534 5.28591C254.094 7.74447 258.386 11.3094 261.411 15.9807C264.436 20.6519 265.949 26.2247 265.949 32.6989C265.949 39.0912 264.436 44.6229 261.411 49.2942C258.386 53.8835 254.094 57.4075 248.534 59.866C242.975 62.3246 236.352 63.5539 228.667 63.5539H202.545L211.375 54.826V87.5249H191.508ZM246.081 87.5249L224.62 56.3011H245.836L267.543 87.5249H246.081ZM211.375 57.0387L202.545 47.6961H227.563C233.695 47.6961 238.274 46.3849 241.299 43.7624C244.324 41.058 245.836 37.3702 245.836 32.6989C245.836 27.9457 244.324 24.2578 241.299 21.6354C238.274 19.0129 233.695 17.7017 227.563 17.7017H202.545L211.375 8.23618V57.0387Z" fill="white"/>
<path d="M309.896 89C303.028 89 296.447 88.0985 290.151 86.2956C283.856 84.4107 278.787 81.9931 274.944 79.0428L281.689 64.0456C285.369 66.668 289.702 68.8398 294.689 70.5608C299.758 72.1998 304.868 73.0193 310.019 73.0193C313.943 73.0193 317.091 72.6506 319.462 71.913C321.915 71.0935 323.713 69.9871 324.858 68.5939C326.002 67.2007 326.575 65.6027 326.575 63.7997C326.575 61.5051 325.675 59.7021 323.877 58.3909C322.078 56.9977 319.707 55.8913 316.764 55.0718C313.82 54.1703 310.55 53.3508 306.953 52.6133C303.437 51.7937 299.881 50.8103 296.283 49.663C292.768 48.5156 289.538 47.0405 286.595 45.2376C283.652 43.4346 281.24 41.058 279.359 38.1077C277.561 35.1575 276.661 31.3877 276.661 26.7983C276.661 21.8812 277.969 17.4148 280.586 13.3992C283.284 9.30156 287.29 6.06445 292.604 3.68784C298 1.22928 304.745 0 312.839 0C318.235 0 323.55 0.655616 328.782 1.96685C334.015 3.19613 338.634 5.08103 342.64 7.62154L336.508 22.7417C332.502 20.4471 328.496 18.767 324.49 17.7017C320.484 16.5543 316.559 15.9807 312.717 15.9807C308.874 15.9807 305.726 16.4314 303.274 17.3329C300.821 18.2343 299.063 19.4226 298 20.8978C296.937 22.291 296.406 23.93 296.406 25.8149C296.406 28.0276 297.305 29.8306 299.104 31.2237C300.903 32.535 303.274 33.6004 306.217 34.4199C309.16 35.2394 312.39 36.0589 315.905 36.8784C319.503 37.698 323.059 38.6404 326.575 39.7058C330.172 40.7712 333.442 42.2053 336.386 44.0083C339.329 45.8112 341.7 48.1878 343.499 51.1381C345.379 54.0884 346.319 57.8172 346.319 62.3246C346.319 67.1598 344.97 71.5852 342.272 75.6008C339.574 79.6165 335.527 82.8536 330.131 85.3121C324.817 87.7707 318.072 89 309.896 89Z" fill="white"/>
<path d="M401.591 89C394.806 89 388.51 87.8936 382.705 85.6809C376.982 83.4682 371.995 80.354 367.744 76.3384C363.574 72.3227 360.304 67.6105 357.933 62.2017C355.643 56.7928 354.499 50.8923 354.499 44.5C354.499 38.1077 355.643 32.2072 357.933 26.7983C360.304 21.3895 363.615 16.6773 367.866 12.6616C372.118 8.64594 377.105 5.53176 382.828 3.31905C388.551 1.10635 394.765 0 401.469 0C408.255 0 414.468 1.10635 420.11 3.31905C425.833 5.53176 430.779 8.64594 434.949 12.6616C439.2 16.6773 442.512 21.3895 444.882 26.7983C447.253 32.1252 448.439 38.0258 448.439 44.5C448.439 50.8923 447.253 56.8338 444.882 62.3246C442.512 67.7334 439.2 72.4457 434.949 76.4613C430.779 80.395 425.833 83.4682 420.11 85.6809C414.468 87.8936 408.296 89 401.591 89ZM401.469 72.0359C405.311 72.0359 408.827 71.3803 412.016 70.0691C415.286 68.7578 418.148 66.8729 420.6 64.4144C423.053 61.9558 424.933 59.0465 426.242 55.6865C427.632 52.3264 428.326 48.5976 428.326 44.5C428.326 40.4024 427.632 36.6736 426.242 33.3135C424.933 29.9535 423.053 27.0442 420.6 24.5856C418.229 22.1271 415.409 20.2422 412.138 18.9309C408.868 17.6197 405.311 16.9641 401.469 16.9641C397.626 16.9641 394.07 17.6197 390.799 18.9309C387.611 20.2422 384.79 22.1271 382.337 24.5856C379.885 27.0442 377.963 29.9535 376.573 33.3135C375.265 36.6736 374.611 40.4024 374.611 44.5C374.611 48.5156 375.265 52.2445 376.573 55.6865C377.963 59.0465 379.844 61.9558 382.215 64.4144C384.668 66.8729 387.529 68.7578 390.799 70.0691C394.07 71.3803 397.626 72.0359 401.469 72.0359Z" fill="white"/>
<path d="M491.577 89C484.709 89 478.127 88.0985 471.832 86.2956C465.537 84.4107 460.468 81.9931 456.625 79.0428L463.37 64.0456C467.049 66.668 471.382 68.8398 476.37 70.5608C481.439 72.1998 486.549 73.0193 491.699 73.0193C495.624 73.0193 498.771 72.6506 501.142 71.913C503.595 71.0935 505.394 69.9871 506.538 68.5939C507.683 67.2007 508.255 65.6027 508.255 63.7997C508.255 61.5051 507.356 59.7021 505.557 58.3909C503.759 56.9977 501.388 55.8913 498.444 55.0718C495.501 54.1703 492.231 53.3508 488.633 52.6133C485.118 51.7937 481.561 50.8103 477.964 49.663C474.448 48.5156 471.219 47.0405 468.276 45.2376C465.332 43.4346 462.92 41.058 461.04 38.1077C459.241 35.1575 458.342 31.3877 458.342 26.7983C458.342 21.8812 459.65 17.4148 462.266 13.3992C464.964 9.30156 468.971 6.06445 474.285 3.68784C479.681 1.22928 486.426 0 494.52 0C499.916 0 505.23 0.655616 510.463 1.96685C515.695 3.19613 520.315 5.08103 524.321 7.62154L518.189 22.7417C514.183 20.4471 510.177 18.767 506.171 17.7017C502.164 16.5543 498.24 15.9807 494.397 15.9807C490.555 15.9807 487.407 16.4314 484.954 17.3329C482.502 18.2343 480.744 19.4226 479.681 20.8978C478.618 22.291 478.087 23.93 478.087 25.8149C478.087 28.0276 478.986 29.8306 480.785 31.2237C482.583 32.535 484.954 33.6004 487.898 34.4199C490.841 35.2394 494.07 36.0589 497.586 36.8784C501.183 37.698 504.74 38.6404 508.255 39.7058C511.853 40.7712 515.123 42.2053 518.066 44.0083C521.01 45.8112 523.381 48.1878 525.179 51.1381C527.06 54.0884 528 57.8172 528 62.3246C528 67.1598 526.651 71.5852 523.953 75.6008C521.255 79.6165 517.208 82.8536 511.812 85.3121C506.498 87.7707 499.753 89 491.577 89Z" fill="white"/>
<path d="M473.934 213C472.216 213 470.556 212.8 468.955 212.399C467.353 211.998 466.035 211.477 465 210.836L467.226 205.667C468.203 206.248 469.287 206.719 470.478 207.079C471.689 207.42 472.86 207.59 473.993 207.59C474.657 207.59 475.175 207.55 475.546 207.47C475.936 207.37 476.219 207.24 476.395 207.079C476.571 206.899 476.659 206.689 476.659 206.448C476.659 206.067 476.454 205.767 476.044 205.546C475.633 205.326 475.087 205.146 474.403 205.005C473.739 204.845 473.007 204.685 472.206 204.525C471.405 204.344 470.595 204.114 469.775 203.833C468.974 203.553 468.232 203.182 467.549 202.721C466.885 202.26 466.347 201.659 465.937 200.918C465.527 200.157 465.322 199.215 465.322 198.093C465.322 196.791 465.674 195.608 466.377 194.546C467.099 193.464 468.164 192.603 469.57 191.962C470.995 191.321 472.763 191 474.872 191C476.258 191 477.625 191.15 478.973 191.451C480.32 191.751 481.531 192.212 482.605 192.833L480.525 197.973C479.51 197.452 478.524 197.061 477.567 196.801C476.629 196.54 475.712 196.41 474.813 196.41C474.149 196.41 473.622 196.47 473.231 196.59C472.841 196.71 472.558 196.871 472.382 197.071C472.226 197.271 472.148 197.492 472.148 197.732C472.148 198.093 472.353 198.383 472.763 198.604C473.173 198.804 473.71 198.975 474.374 199.115C475.057 199.255 475.799 199.405 476.6 199.566C477.42 199.726 478.231 199.946 479.031 200.227C479.832 200.507 480.564 200.878 481.228 201.339C481.912 201.8 482.459 202.401 482.869 203.142C483.279 203.883 483.484 204.805 483.484 205.907C483.484 207.189 483.123 208.372 482.4 209.454C481.697 210.515 480.643 211.377 479.237 212.038C477.83 212.679 476.063 213 473.934 213Z" fill="white"/>
<path d="M485.541 212.519V191.481H496.497C499.329 191.481 501.418 192.002 502.766 193.044C504.113 194.066 504.787 195.378 504.787 196.981C504.787 198.043 504.494 198.995 503.908 199.836C503.342 200.658 502.512 201.309 501.418 201.79C500.325 202.27 498.977 202.511 497.376 202.511L497.962 200.888C499.563 200.888 500.94 201.118 502.092 201.579C503.264 202.04 504.162 202.711 504.787 203.593C505.431 204.454 505.754 205.496 505.754 206.719C505.754 208.542 505.011 209.964 503.527 210.986C502.063 212.008 499.914 212.519 497.083 212.519H485.541ZM492.337 207.56H496.497C497.259 207.56 497.825 207.42 498.196 207.139C498.586 206.859 498.782 206.448 498.782 205.907C498.782 205.366 498.586 204.955 498.196 204.675C497.825 204.394 497.259 204.254 496.497 204.254H491.869V199.566H495.56C496.341 199.566 496.907 199.435 497.259 199.175C497.63 198.894 497.815 198.504 497.815 198.003C497.815 197.482 497.63 197.091 497.259 196.831C496.907 196.57 496.341 196.44 495.56 196.44H492.337V207.56Z" fill="white"/>
<path d="M518.802 213C517.161 213 515.638 212.74 514.232 212.219C512.846 211.678 511.635 210.916 510.6 209.934C509.584 208.953 508.793 207.791 508.227 206.448C507.661 205.106 507.378 203.623 507.378 202C507.378 200.377 507.661 198.894 508.227 197.552C508.793 196.209 509.584 195.047 510.6 194.066C511.635 193.084 512.846 192.332 514.232 191.811C515.638 191.27 517.161 191 518.802 191C520.813 191 522.591 191.361 524.133 192.082C525.696 192.803 526.985 193.845 528 195.208L523.635 199.205C523.03 198.423 522.356 197.822 521.614 197.402C520.891 196.961 520.071 196.74 519.153 196.74C518.431 196.74 517.777 196.861 517.191 197.101C516.605 197.342 516.097 197.692 515.668 198.153C515.257 198.614 514.935 199.175 514.701 199.836C514.467 200.477 514.349 201.199 514.349 202C514.349 202.801 514.467 203.533 514.701 204.194C514.935 204.835 515.257 205.386 515.668 205.847C516.097 206.308 516.605 206.658 517.191 206.899C517.777 207.139 518.431 207.26 519.153 207.26C520.071 207.26 520.891 207.049 521.614 206.628C522.356 206.188 523.03 205.577 523.635 204.795L528 208.792C526.985 210.135 525.696 211.177 524.133 211.918C522.591 212.639 520.813 213 518.802 213Z" fill="white"/>
<path d="M42.6015 115.291H32.1055V125.17H32.4142H42.6015V115.291Z" fill="#FF6B00"/>
<path d="M0 115.291H30.8706V125.17H0V115.291Z" fill="white"/>
<path d="M0 137.518H37.0447V147.396H0V137.518Z" fill="white"/>
<path d="M0 160.362H42.6015V170.241H0V160.362Z" fill="white"/>
<path d="M0 170.241V124.552H12.3482V170.241H0Z" fill="white"/>
<path d="M71.463 171.447C67.0209 171.447 62.7638 170.866 58.6918 169.702C54.6198 168.485 51.3411 166.925 48.8556 165.02L53.2185 155.34C55.5982 157.033 58.401 158.434 61.6268 159.545C64.9055 160.603 68.2107 161.132 71.5423 161.132C74.0807 161.132 76.1167 160.894 77.6503 160.418C79.2368 159.889 80.4002 159.175 81.1406 158.276C81.8809 157.377 82.2511 156.345 82.2511 155.181C82.2511 153.7 81.6694 152.536 80.506 151.69C79.3426 150.791 77.8089 150.077 75.9052 149.548C74.0014 148.966 71.8861 148.437 69.5592 147.961C67.2853 147.432 64.9849 146.797 62.658 146.056C60.3841 145.316 58.2952 144.364 56.3914 143.2C54.4876 142.036 52.9276 140.502 51.7113 138.598C50.5479 136.693 49.9662 134.26 49.9662 131.298C49.9662 128.124 50.8123 125.241 52.5045 122.649C54.2497 120.004 56.8409 117.914 60.2783 116.38C63.7686 114.793 68.1314 114 73.3668 114C76.8571 114 80.2944 114.423 83.6789 115.27C87.0634 116.063 90.0513 117.28 92.6426 118.92L88.6764 128.679C86.0851 127.198 83.4938 126.114 80.9026 125.426C78.3113 124.685 75.773 124.315 73.2875 124.315C70.802 124.315 68.766 124.606 67.1795 125.188C65.593 125.77 64.456 126.537 63.7686 127.489C63.0811 128.388 62.7374 129.446 62.7374 130.663C62.7374 132.091 63.3191 133.255 64.4825 134.154C65.6459 135.001 67.1795 135.688 69.0833 136.217C70.9871 136.746 73.0759 137.275 75.3499 137.804C77.6767 138.333 79.9771 138.941 82.2511 139.629C84.5779 140.317 86.6933 141.243 88.597 142.406C90.5008 143.57 92.0344 145.104 93.1978 147.008C94.4141 148.913 95.0223 151.32 95.0223 154.229C95.0223 157.35 94.1497 160.207 92.4046 162.799C90.6595 165.391 88.0418 167.48 84.5515 169.067C81.1141 170.654 76.7513 171.447 71.463 171.447Z" fill="white"/>
<path d="M103.803 170.495V114.952H127.838C132.809 114.952 137.093 115.772 140.689 117.412C144.285 118.999 147.061 121.3 149.018 124.315C150.975 127.33 151.953 130.927 151.953 135.106C151.953 139.232 150.975 142.803 149.018 145.818C147.061 148.833 144.285 151.161 140.689 152.801C137.093 154.388 132.809 155.181 127.838 155.181H110.942L116.654 149.389V170.495H103.803ZM116.654 150.817L110.942 144.707H127.124C131.091 144.707 134.052 143.861 136.009 142.168C137.965 140.476 138.944 138.122 138.944 135.106C138.944 132.038 137.965 129.658 136.009 127.965C134.052 126.272 131.091 125.426 127.124 125.426H110.942L116.654 119.316V150.817Z" fill="white"/>
<path d="M188.872 171.447C184.483 171.447 180.411 170.733 176.656 169.305C172.954 167.877 169.729 165.867 166.979 163.275C164.282 160.683 162.166 157.641 160.633 154.15C159.152 150.658 158.412 146.85 158.412 142.724C158.412 138.598 159.152 134.789 160.633 131.298C162.166 127.806 164.308 124.765 167.058 122.173C169.808 119.581 173.034 117.571 176.735 116.142C180.437 114.714 184.456 114 188.793 114C193.182 114 197.201 114.714 200.85 116.142C204.552 117.571 207.751 119.581 210.448 122.173C213.198 124.765 215.34 127.806 216.874 131.298C218.407 134.736 219.174 138.545 219.174 142.724C219.174 146.85 218.407 150.685 216.874 154.229C215.34 157.72 213.198 160.762 210.448 163.354C207.751 165.893 204.552 167.877 200.85 169.305C197.201 170.733 193.208 171.447 188.872 171.447ZM188.793 160.498C191.278 160.498 193.552 160.074 195.615 159.228C197.73 158.382 199.581 157.165 201.167 155.578C202.754 153.991 203.97 152.113 204.816 149.944C205.715 147.775 206.165 145.369 206.165 142.724C206.165 140.079 205.715 137.672 204.816 135.503C203.97 133.334 202.754 131.456 201.167 129.869C199.634 128.283 197.809 127.066 195.694 126.219C193.579 125.373 191.278 124.95 188.793 124.95C186.307 124.95 184.007 125.373 181.892 126.219C179.829 127.066 178.005 128.283 176.418 129.869C174.832 131.456 173.589 133.334 172.69 135.503C171.844 137.672 171.421 140.079 171.421 142.724C171.421 145.316 171.844 147.723 172.69 149.944C173.589 152.113 174.805 153.991 176.339 155.578C177.925 157.165 179.776 158.382 181.892 159.228C184.007 160.074 186.307 160.498 188.793 160.498Z" fill="white"/>
<path d="M228.832 170.495V114.952H252.867C257.838 114.952 262.121 115.772 265.717 117.412C269.313 118.999 272.09 121.3 274.046 124.315C276.003 127.33 276.981 130.927 276.981 135.106C276.981 139.232 276.003 142.803 274.046 145.818C272.09 148.781 269.313 151.055 265.717 152.642C262.121 154.229 257.838 155.023 252.867 155.023H235.971L241.682 149.389V170.495H228.832ZM264.131 170.495L250.249 150.341H263.972L278.013 170.495H264.131ZM241.682 150.817L235.971 144.787H252.153C256.119 144.787 259.081 143.94 261.037 142.248C262.994 140.502 263.972 138.122 263.972 135.106C263.972 132.038 262.994 129.658 261.037 127.965C259.081 126.272 256.119 125.426 252.153 125.426H235.971L241.682 119.316V150.817Z" fill="white"/>
<path d="M297.89 170.495V125.426H280.122V114.952H328.509V125.426H310.741V170.495H297.89Z" fill="white"/>
<path d="M335.423 170.495V114.952H348.274V170.495H335.423Z" fill="white"/>
<path d="M377.877 170.495L353.922 114.952H367.803L388.745 164.147H380.574L401.833 114.952H414.604L390.569 170.495H377.877Z" fill="white"/>
<path d="M445.591 171.447C441.202 171.447 437.13 170.733 433.375 169.305C429.673 167.877 426.448 165.867 423.698 163.275C421.001 160.683 418.885 157.641 417.352 154.15C415.871 150.658 415.131 146.85 415.131 142.724C415.131 138.598 415.871 134.789 417.352 131.298C418.885 127.806 421.027 124.765 423.777 122.173C426.527 119.581 429.753 117.571 433.454 116.142C437.156 114.714 441.175 114 445.512 114C449.901 114 453.92 114.714 457.569 116.142C461.271 117.571 464.47 119.581 467.167 122.173C469.917 124.765 472.059 127.806 473.593 131.298C475.126 134.736 475.893 138.545 475.893 142.724C475.893 146.85 475.126 150.685 473.593 154.229C472.059 157.72 469.917 160.762 467.167 163.354C464.47 165.893 461.271 167.877 457.569 169.305C453.92 170.733 449.927 171.447 445.591 171.447ZM445.512 160.498C447.997 160.498 450.271 160.074 452.334 159.228C454.449 158.382 456.3 157.165 457.886 155.578C459.473 153.991 460.689 152.113 461.535 149.944C462.434 147.775 462.884 145.369 462.884 142.724C462.884 140.079 462.434 137.672 461.535 135.503C460.689 133.334 459.473 131.456 457.886 129.869C456.353 128.283 454.528 127.066 452.413 126.219C450.298 125.373 447.997 124.95 445.512 124.95C443.026 124.95 440.726 125.373 438.611 126.219C436.548 127.066 434.724 128.283 433.137 129.869C431.551 131.456 430.308 133.334 429.409 135.503C428.563 137.672 428.14 140.079 428.14 142.724C428.14 145.316 428.563 147.723 429.409 149.944C430.308 152.113 431.524 153.991 433.058 155.578C434.644 157.165 436.495 158.382 438.611 159.228C440.726 160.074 443.026 160.498 445.512 160.498Z" fill="white"/>
<path d="M503.795 171.447C499.353 171.447 495.096 170.866 491.024 169.702C486.952 168.485 483.673 166.925 481.188 165.02L485.551 155.34C487.93 157.033 490.733 158.434 493.959 159.545C497.238 160.603 500.543 161.132 503.875 161.132C506.413 161.132 508.449 160.894 509.983 160.418C511.569 159.889 512.732 159.175 513.473 158.276C514.213 157.377 514.583 156.345 514.583 155.181C514.583 153.7 514.002 152.536 512.838 151.69C511.675 150.791 510.141 150.077 508.237 149.548C506.334 148.966 504.218 148.437 501.891 147.961C499.617 147.432 497.317 146.797 494.99 146.056C492.716 145.316 490.627 144.364 488.724 143.2C486.82 142.036 485.26 140.502 484.044 138.598C482.88 136.693 482.298 134.26 482.298 131.298C482.298 128.124 483.144 125.241 484.837 122.649C486.582 120.004 489.173 117.914 492.611 116.38C496.101 114.793 500.464 114 505.699 114C509.189 114 512.627 114.423 516.011 115.27C519.396 116.063 522.384 117.28 524.975 118.92L521.009 128.679C518.417 127.198 515.826 126.114 513.235 125.426C510.644 124.685 508.105 124.315 505.62 124.315C503.134 124.315 501.098 124.606 499.512 125.188C497.925 125.77 496.788 126.537 496.101 127.489C495.413 128.388 495.07 129.446 495.07 130.663C495.07 132.091 495.651 133.255 496.815 134.154C497.978 135.001 499.512 135.688 501.416 136.217C503.319 136.746 505.408 137.275 507.682 137.804C510.009 138.333 512.309 138.941 514.583 139.629C516.91 140.317 519.025 141.243 520.929 142.406C522.833 143.57 524.367 145.104 525.53 147.008C526.746 148.913 527.355 151.32 527.355 154.229C527.355 157.35 526.482 160.207 524.737 162.799C522.992 165.391 520.374 167.48 516.884 169.067C513.446 170.654 509.084 171.447 503.795 171.447Z" fill="white"/>
<path fill-rule="evenodd" clip-rule="evenodd" d="M412.105 190L0 201.5L412.105 213L380.182 201.5L412.105 190ZM433.053 190.411L402.701 201.5H452.718L433.053 190.411ZM433.495 213L401.846 201.5H454L433.495 213Z" fill="#FF6B00"/>
</svg>
